<?xml version="1.0" encoding="UTF-8"?>
<svg width="128" height="128" viewBox="0 0 128 128" xmlns="http://www.w3.org/2000/svg">
    <rect width="128" height="128" rx="24" fill="#128C7E"/>
    <path d="M64 32C45.2 32 30 47.2 30 66C30 74.8 32.4 83.2 36.8 90.4L32 96L41.6 91.2C48.8 95.6 57.2 98 66 98C84.8 98 100 82.8 100 64C100 45.2 84.8 32 64 32ZM66 92C58.4 92 51.2 89.6 45.6 85.2L45.2 84.8L36.8 89.6L41.6 81.2L41.2 80.8C36.8 75.2 34.4 68 34.4 60.4C34.4 44.8 47.2 32 62.8 32C78.4 32 91.2 44.8 91.2 60.4C91.2 76 78.4 92 66 92Z" fill="white"/>
    <path d="M82.4 58.4C81.6 57.6 80 57.6 79.2 58.4L72.8 64.8L67.2 59.2C66.4 58.4 64.8 58.4 64 59.2C63.2 60 63.2 61.6 64 62.4L69.6 68L76 74.4C76.8 75.2 78.4 75.2 79.2 74.4C80 73.6 80 72 79.2 71.2L72.8 64.8L79.2 58.4Z" fill="white"/>
</svg> 